<svg id="Layer_5" data-name="Layer 5" xmlns="http://www.w3.org/2000/svg" viewBox="0 0 512 512"><defs><style>.cls-1{fill:#fefefe;}</style></defs><title>Facebook</title><path class="cls-1" d="M448,512H360a40,40,0,0,1-40-40V360a40,40,0,0,1,40-40h12.92c8.32,0,16.84-6.66,19.06-15l8.48-32c2.48-9.31-2.81-17-11.85-17H360a40,40,0,0,1-40-40V200a40,40,0,0,1,40-40h24a16,16,0,0,0,16-16V112a16,16,0,0,0-16-16H336a80,80,0,0,0-80,80v40a40,40,0,0,1-40,40h-7.62c-9,0-16.38,7.71-16.38,17v32a15,15,0,0,0,15.07,15H216a40,40,0,0,1,40,40V472a40,40,0,0,1-40,40h-8a16,16,0,1,1,0-32,16,16,0,0,0,16-16V368a16,16,0,0,0-16-16h-10.5A37.39,37.39,0,0,1,160,314.42V266.5c0-23.16,18.37-42.51,41-42.51h7a16,16,0,0,0,16-16V168A104,104,0,0,1,328,64h64a40,40,0,0,1,40,40v48a40,40,0,0,1-40,40H352v16a16,16,0,0,0,16,16h30c22.67,0,37.4,19.35,33.06,42.51l-9,47.92c-3.93,21-23.82,37.58-44.54,37.58H368a16,16,0,0,0-16,16v96a16,16,0,0,0,16,16h80a32,32,0,0,0,32-32V64a32,32,0,0,0-32-32H64A32,32,0,0,0,32,64V448a32,32,0,0,0,32,32H80a16,16,0,1,1,0,32H64A64,64,0,0,1,0,448V64A64,64,0,0,1,64,0H448a64,64,0,0,1,64,64V448a64,64,0,0,1-64,64ZM144,480a16,16,0,1,1-16,16,16,16,0,0,1,16-16Z"/></svg>