<?xml version="1.0" encoding="utf-8"?>
<!-- Generator: Adobe Illustrator 21.0.0, SVG Export Plug-In . SVG Version: 6.00 Build 0)  -->
<svg version="1.1" id="Layer_5" xmlns="http://www.w3.org/2000/svg" xmlns:xlink="http://www.w3.org/1999/xlink" x="0px" y="0px"
	 viewBox="0 0 512 512" style="enable-background:new 0 0 512 512;" xml:space="preserve">
<style type="text/css">
	.st0{fill:#FEFEFE;}
</style>
<path class="st0" d="M506.9,360.4c0,0-11.5,39.7-26.9,55.6c-19.5,20.8-42.8,25.3-52.8,26.5c-3.3,0.3-6.7,0.5-10.1,0.7l0-0.1
	c-4.5,0.4-9.1-1-12.5-4.4c-6.2-6.2-6.2-16.3,0-22.4c2.8-2.8,6.5-4.2,10.1-4.4l0-0.2c0.5,0,1.1-0.1,1.6-0.1c8.3-1,26.4-1.1,42.5-18.3
	c12.7-13.1,16.8-42.9,16.8-42.9s4.2-35,4.2-69.9v-48.8c0-35-4.2-69.9-4.2-69.9s-4.1-29.8-16.8-42.9c-16.1-17.2-34.2-17.3-42.5-18.3
	C357.1,96,256,96,256,96s-101.1,0-160.4,4.4c-8.3,1-26.4,1.1-42.5,18.3c-12.7,13.1-16.8,42.9-16.8,42.9c0,0-4.2,35-4.2,69.9v48.8
	c0,35,4.2,69.9,4.2,69.9c0,0,4.1,29.8,16.8,42.9c16.1,17.2,37.3,16.7,46.8,18.5C133.8,414.9,256,416,256,416c8.8,0,16,7.2,16,16
	c0,8.8-7.2,16-16,16c-0.3,0-0.5,0-0.8-0.1c-10.1-0.1-126.1-1.4-165.3-5.3c-11.4-2.2-38.5-5.8-58-26.7
	c-15.4-15.9-26.8-55.6-26.8-55.6S0,326.1,0,283.7v-55.7c0-42.3,5.1-76.7,5.1-76.7S16.6,111.9,32,96c19.5-20.8,42.8-25.5,52.8-26.7
	C156.4,64,255.9,64,255.9,64h0.2c0,0,99.5,0,171.1,5.3c10,1.2,33.3,5.9,52.8,26.7c15.4,15.9,26.9,55.4,26.9,55.4s5.1,34.3,5.1,76.7
	v55.7C512,326.1,506.9,360.4,506.9,360.4L506.9,360.4z M320,416c8.8,0,16,7.2,16,16c0,8.8-7.2,16-16,16s-16-7.2-16-16
	C304,423.2,311.2,416,320,416L320,416z M248.5,334.1l-0.1,0.1c-2.4,1.4-5.1,2.3-8.1,2.3c-8.7,0-15.8-7.1-15.8-15.8
	c0-6.1,3.5-11.3,8.5-13.9l0,0l81.6-43.5c0,0-0.2-0.1-0.1-0.1c2.7-1.3,4.5-4,4.5-7.2c0-2.9-1.6-5.5-3.9-6.8l-95.5-51.1
	c-1.1-0.6-2.3-0.8-3.5-0.8c-4.3,0-7.7,3.4-7.9,7.5l0,99H208c0,0.1,0,0.1,0,0.2c0,8.8-7.2,16-16,16c-8.8,0-16-7.2-16-16c0,0,0,0,0,0
	V192.6c0-18,14.6-32.6,32.6-32.6c6.1,0,11.9,1.7,16.8,4.7c0.2,0.1,0.3,0.1,0.4,0.1l110.4,63.6c2.3,1.4,4.5,3,6.5,5
	c12.5,12.5,12.5,32.8,0,45.3c-1.8,1.8-3.9,3.4-6,4.7l-87.5,50.4C248.9,333.9,248.7,334,248.5,334.1L248.5,334.1z"/>
</svg>
