<svg id="Layer_1" data-name="Layer 1" xmlns="http://www.w3.org/2000/svg" viewBox="0 0 64 64"><defs><style>.cls-1{fill:#fefefe;}</style></defs><title>Instagram</title><path class="cls-1" d="M22,40a2,2,0,1,1-2,2,2,2,0,0,1,2-2ZM16.15,34.3A16,16,0,1,1,34.27,47.86l-.29,0,.3,0a2,2,0,0,1-.57-4h0A12,12,0,1,0,20.12,33.71h0a2,2,0,0,1-4,.57l0,.3c0-.1,0-.19-.06-.29ZM48,13a3,3,0,0,1,6,0v.09a3,3,0,0,1-6,0ZM58.66,58.52C55.18,62,50.36,64,42,64H22c-8.35,0-13.17-2-16.65-5.48S0,50.22,0,42V22c0-8.2,1.91-13,5.34-16.51S13.64,0,22,0H42c8.35,0,13.17,2,16.65,5.48.22.22.43.47.63.71A2,2,0,1,1,56.48,9l0,0c-.21-.24-.4-.5-.63-.73C52.79,5.22,48.3,4,41,4H23C15.69,4,11.21,5.22,8.17,8.29S4,15.83,4,23V41c0,7.18,1.17,11.67,4.17,14.7S15.69,60,23,60H41c7.3,0,11.8-1.22,14.84-4.29S60,48.18,60,41V23a47.76,47.76,0,0,0-.22-4.78h0a2,2,0,0,1,4-.41.8.8,0,0,1,0,.08h0c.12,1.27.2,2.61.2,4.09V42c0,8.2-1.91,13-5.34,16.51Z"/></svg>